<svg xmlns="http://www.w3.org/2000/svg" xmlns:xlink="http://www.w3.org/1999/xlink" width="500" zoomAndPan="magnify" viewBox="0 0 375 374.999991" height="500" preserveAspectRatio="xMidYMid meet" version="1.0"><defs><g/><clipPath id="6c82c50cec"><path d="M 71 32.367188 L 135.605469 32.367188 L 135.605469 54.257812 L 71 54.257812 Z M 71 32.367188 " clip-rule="nonzero"/></clipPath><clipPath id="d44bfb9cf6"><path d="M 90.273438 32.367188 L 129.085938 32.367188 C 131.234375 32.367188 133.21875 33.519531 134.285156 35.386719 C 135.351562 37.257812 135.332031 39.550781 134.234375 41.402344 L 131.972656 45.222656 C 128.65625 50.820312 122.632812 54.257812 116.121094 54.257812 L 77.3125 54.257812 C 75.160156 54.257812 73.175781 53.101562 72.109375 51.234375 C 71.046875 49.367188 71.066406 47.070312 72.160156 45.222656 L 74.421875 41.402344 C 77.738281 35.800781 83.765625 32.367188 90.273438 32.367188 Z M 90.273438 32.367188 " clip-rule="nonzero"/></clipPath></defs><rect x="-37.5" width="450" fill="#ffffff" y="-37.499999" height="449.999989" fill-opacity="1"/><rect x="-37.5" width="450" fill="#ffffff" y="-37.499999" height="449.999989" fill-opacity="1"/><g clip-path="url(#6c82c50cec)"><g clip-path="url(#d44bfb9cf6)"><path fill="#89cff0" d="M 66.8125 32.367188 L 139.585938 32.367188 L 139.585938 54.257812 L 66.8125 54.257812 Z M 66.8125 32.367188 " fill-opacity="1" fill-rule="nonzero"/></g></g><g fill="#89cff0" fill-opacity="1"><g transform="translate(15.265603, 50.374465)"><g><path d="M 13.765625 -9.53125 C 14.796875 -9.53125 15.613281 -9.203125 16.21875 -8.546875 C 16.832031 -7.890625 17.140625 -7.015625 17.140625 -5.921875 L 17.140625 0 L 14.140625 0 L 14.140625 -5.09375 C 14.140625 -5.644531 13.992188 -6.082031 13.703125 -6.40625 C 13.410156 -6.726562 13.015625 -6.890625 12.515625 -6.890625 C 11.960938 -6.878906 11.519531 -6.664062 11.1875 -6.25 C 10.851562 -5.832031 10.6875 -5.300781 10.6875 -4.65625 L 10.6875 0 L 7.671875 0 L 7.671875 -5.09375 C 7.671875 -5.644531 7.523438 -6.082031 7.234375 -6.40625 C 6.953125 -6.726562 6.5625 -6.890625 6.0625 -6.890625 C 5.5 -6.878906 5.046875 -6.660156 4.703125 -6.234375 C 4.367188 -5.816406 4.203125 -5.289062 4.203125 -4.65625 L 4.203125 0 L 1.203125 0 L 1.203125 -9.40625 L 4.203125 -9.40625 L 4.203125 -7.84375 C 4.835938 -8.945312 5.875 -9.507812 7.3125 -9.53125 C 8.0625 -9.53125 8.710938 -9.34375 9.265625 -8.96875 C 9.816406 -8.59375 10.207031 -8.070312 10.4375 -7.40625 C 11.0625 -8.800781 12.171875 -9.507812 13.765625 -9.53125 Z M 13.765625 -9.53125 "/></g></g></g><g fill="#89cff0" fill-opacity="1"><g transform="translate(32.342459, 50.374465)"><g><path d="M 5.421875 -9.53125 C 6.710938 -9.53125 7.710938 -9.234375 8.421875 -8.640625 C 9.140625 -8.046875 9.503906 -7.210938 9.515625 -6.140625 L 9.515625 0 L 6.578125 0 L 6.578125 -1.078125 C 5.960938 -0.265625 5.003906 0.140625 3.703125 0.140625 C 2.710938 0.140625 1.925781 -0.128906 1.34375 -0.671875 C 0.757812 -1.222656 0.46875 -1.9375 0.46875 -2.8125 C 0.46875 -3.707031 0.78125 -4.398438 1.40625 -4.890625 C 2.03125 -5.378906 2.921875 -5.632812 4.078125 -5.65625 L 6.5625 -5.65625 L 6.5625 -5.796875 C 6.5625 -6.253906 6.40625 -6.613281 6.09375 -6.875 C 5.78125 -7.132812 5.320312 -7.265625 4.71875 -7.265625 C 3.875 -7.265625 2.941406 -7.003906 1.921875 -6.484375 L 1.0625 -8.46875 C 2.582031 -9.175781 4.035156 -9.53125 5.421875 -9.53125 Z M 4.625 -1.90625 C 5.09375 -1.90625 5.507812 -2.019531 5.875 -2.25 C 6.238281 -2.488281 6.46875 -2.800781 6.5625 -3.1875 L 6.5625 -4.03125 L 4.65625 -4.03125 C 3.75 -4.03125 3.296875 -3.691406 3.296875 -3.015625 C 3.296875 -2.671875 3.410156 -2.398438 3.640625 -2.203125 C 3.878906 -2.003906 4.207031 -1.90625 4.625 -1.90625 Z M 4.625 -1.90625 "/></g></g></g><g fill="#89cff0" fill-opacity="1"><g transform="translate(41.804252, 50.374465)"><g><path d="M 7.359375 -9.53125 C 8.390625 -9.53125 9.21875 -9.203125 9.84375 -8.546875 C 10.476562 -7.890625 10.796875 -7.015625 10.796875 -5.921875 L 10.796875 0 L 7.796875 0 L 7.796875 -5.09375 C 7.796875 -5.632812 7.644531 -6.066406 7.34375 -6.390625 C 7.050781 -6.710938 6.648438 -6.875 6.140625 -6.875 C 5.597656 -6.875 5.15625 -6.695312 4.8125 -6.34375 C 4.476562 -6 4.28125 -5.539062 4.21875 -4.96875 L 4.21875 0 L 1.203125 0 L 1.203125 -9.40625 L 4.21875 -9.40625 L 4.21875 -7.859375 C 4.882812 -8.953125 5.929688 -9.507812 7.359375 -9.53125 Z M 7.359375 -9.53125 "/></g></g></g><g fill="#89cff0" fill-opacity="1"><g transform="translate(52.538123, 50.374465)"><g><path d="M 10.1875 -9.40625 L 10.1875 -0.859375 C 10.1875 0.472656 9.71875 1.53125 8.78125 2.3125 C 7.84375 3.101562 6.613281 3.5 5.09375 3.5 C 3.53125 3.5 2.132812 3.085938 0.90625 2.265625 L 1.953125 0.234375 C 2.859375 0.859375 3.828125 1.171875 4.859375 1.171875 C 5.585938 1.171875 6.15625 0.992188 6.5625 0.640625 C 6.976562 0.296875 7.1875 -0.171875 7.1875 -0.765625 L 7.1875 -1.765625 C 6.539062 -0.921875 5.640625 -0.5 4.484375 -0.5 C 3.285156 -0.5 2.3125 -0.914062 1.5625 -1.75 C 0.8125 -2.59375 0.4375 -3.695312 0.4375 -5.0625 C 0.4375 -6.382812 0.800781 -7.453125 1.53125 -8.265625 C 2.269531 -9.085938 3.226562 -9.5 4.40625 -9.5 C 5.601562 -9.507812 6.53125 -9.09375 7.1875 -8.25 L 7.1875 -9.40625 Z M 5.234375 -2.6875 C 5.816406 -2.6875 6.285156 -2.894531 6.640625 -3.3125 C 7.003906 -3.738281 7.1875 -4.289062 7.1875 -4.96875 C 7.1875 -5.65625 7.003906 -6.207031 6.640625 -6.625 C 6.285156 -7.050781 5.816406 -7.265625 5.234375 -7.265625 C 4.640625 -7.265625 4.160156 -7.050781 3.796875 -6.625 C 3.429688 -6.207031 3.25 -5.65625 3.25 -4.96875 C 3.25 -4.289062 3.429688 -3.738281 3.796875 -3.3125 C 4.160156 -2.894531 4.640625 -2.6875 5.234375 -2.6875 Z M 5.234375 -2.6875 "/></g></g></g><g fill="#89cff0" fill-opacity="1"><g transform="translate(62.818928, 50.374465)"><g><path d="M 5.5625 -9.5 C 7.09375 -9.5 8.328125 -9.0625 9.265625 -8.1875 C 10.210938 -7.3125 10.6875 -6.148438 10.6875 -4.703125 C 10.6875 -3.265625 10.210938 -2.101562 9.265625 -1.21875 C 8.328125 -0.332031 7.09375 0.109375 5.5625 0.109375 C 4.019531 0.109375 2.773438 -0.332031 1.828125 -1.21875 C 0.890625 -2.101562 0.421875 -3.265625 0.421875 -4.703125 C 0.421875 -6.148438 0.890625 -7.3125 1.828125 -8.1875 C 2.773438 -9.0625 4.019531 -9.5 5.5625 -9.5 Z M 5.5625 -7.109375 C 4.9375 -7.109375 4.425781 -6.878906 4.03125 -6.421875 C 3.644531 -5.972656 3.453125 -5.390625 3.453125 -4.671875 C 3.453125 -3.941406 3.644531 -3.351562 4.03125 -2.90625 C 4.425781 -2.457031 4.9375 -2.234375 5.5625 -2.234375 C 6.175781 -2.234375 6.675781 -2.457031 7.0625 -2.90625 C 7.457031 -3.351562 7.65625 -3.941406 7.65625 -4.671875 C 7.65625 -5.390625 7.457031 -5.972656 7.0625 -6.421875 C 6.675781 -6.878906 6.175781 -7.109375 5.5625 -7.109375 Z M 5.5625 -7.109375 "/></g></g></g><g fill="#ffffff" fill-opacity="1"><g transform="translate(73.88723, 50.569605)"><g><path d="M 4.828125 -10.078125 C 6.296875 -10.078125 7.660156 -9.703125 8.921875 -8.953125 L 7.828125 -6.890625 C 6.597656 -7.554688 5.554688 -7.890625 4.703125 -7.890625 C 4.046875 -7.890625 3.71875 -7.660156 3.71875 -7.203125 C 3.71875 -6.960938 3.894531 -6.757812 4.25 -6.59375 C 4.613281 -6.425781 5.050781 -6.273438 5.5625 -6.140625 C 6.082031 -6.003906 6.597656 -5.832031 7.109375 -5.625 C 7.617188 -5.425781 8.050781 -5.101562 8.40625 -4.65625 C 8.757812 -4.21875 8.9375 -3.679688 8.9375 -3.046875 C 8.9375 -2.046875 8.550781 -1.265625 7.78125 -0.703125 C 7.007812 -0.148438 6 0.125 4.75 0.125 C 3 0.125 1.515625 -0.335938 0.296875 -1.265625 L 1.3125 -3.296875 C 2.476562 -2.472656 3.648438 -2.0625 4.828125 -2.0625 C 5.554688 -2.0625 5.921875 -2.289062 5.921875 -2.75 C 5.921875 -3.007812 5.742188 -3.222656 5.390625 -3.390625 C 5.046875 -3.566406 4.617188 -3.722656 4.109375 -3.859375 C 3.609375 -3.992188 3.101562 -4.160156 2.59375 -4.359375 C 2.09375 -4.566406 1.664062 -4.882812 1.3125 -5.3125 C 0.96875 -5.738281 0.796875 -6.28125 0.796875 -6.9375 C 0.796875 -7.925781 1.171875 -8.695312 1.921875 -9.25 C 2.671875 -9.800781 3.640625 -10.078125 4.828125 -10.078125 Z M 4.828125 -10.078125 "/></g></g></g><g fill="#ffffff" fill-opacity="1"><g transform="translate(82.29168, 50.569605)"><g><path d="M 7.0625 -2.75 L 7.6875 -0.53125 C 6.914062 -0.0820312 6.03125 0.140625 5.03125 0.140625 C 4.050781 0.140625 3.253906 -0.128906 2.640625 -0.671875 C 2.035156 -1.222656 1.734375 -2 1.734375 -3 L 1.734375 -7.390625 L 0.34375 -7.390625 L 0.34375 -9.484375 L 1.734375 -9.484375 L 1.734375 -12.25 L 4.90625 -12.25 L 4.90625 -9.5 L 7.5 -9.5 L 7.5 -7.390625 L 4.90625 -7.390625 L 4.90625 -3.5 C 4.90625 -3.125 4.976562 -2.84375 5.125 -2.65625 C 5.28125 -2.476562 5.515625 -2.398438 5.828125 -2.421875 C 6.117188 -2.421875 6.53125 -2.53125 7.0625 -2.75 Z M 7.0625 -2.75 "/></g></g></g><g fill="#ffffff" fill-opacity="1"><g transform="translate(89.258508, 50.569605)"><g><path d="M 5.875 -10.046875 C 7.5 -10.046875 8.804688 -9.582031 9.796875 -8.65625 C 10.796875 -7.726562 11.296875 -6.5 11.296875 -4.96875 C 11.296875 -3.445312 10.796875 -2.21875 9.796875 -1.28125 C 8.804688 -0.351562 7.5 0.109375 5.875 0.109375 C 4.238281 0.109375 2.921875 -0.351562 1.921875 -1.28125 C 0.929688 -2.21875 0.4375 -3.445312 0.4375 -4.96875 C 0.4375 -6.5 0.929688 -7.726562 1.921875 -8.65625 C 2.921875 -9.582031 4.238281 -10.046875 5.875 -10.046875 Z M 5.875 -7.515625 C 5.21875 -7.515625 4.679688 -7.273438 4.265625 -6.796875 C 3.859375 -6.316406 3.65625 -5.695312 3.65625 -4.9375 C 3.65625 -4.164062 3.859375 -3.539062 4.265625 -3.0625 C 4.679688 -2.59375 5.21875 -2.359375 5.875 -2.359375 C 6.53125 -2.359375 7.0625 -2.59375 7.46875 -3.0625 C 7.882812 -3.539062 8.09375 -4.164062 8.09375 -4.9375 C 8.09375 -5.695312 7.882812 -6.316406 7.46875 -6.796875 C 7.0625 -7.273438 6.53125 -7.515625 5.875 -7.515625 Z M 5.875 -7.515625 "/></g></g></g><g fill="#ffffff" fill-opacity="1"><g transform="translate(99.948406, 50.569605)"><g><path d="M 4.46875 -9.9375 L 4.46875 -8.265625 C 5.164062 -9.453125 6.238281 -10.054688 7.6875 -10.078125 L 7.6875 -7.203125 C 6.78125 -7.296875 6.035156 -7.144531 5.453125 -6.75 C 4.878906 -6.363281 4.550781 -5.816406 4.46875 -5.109375 L 4.46875 0 L 1.265625 0 L 1.265625 -9.9375 Z M 4.46875 -9.9375 "/></g></g></g><g fill="#ffffff" fill-opacity="1"><g transform="translate(106.767785, 50.569605)"><g><path d="M 5.625 -10.046875 C 7.34375 -10.046875 8.632812 -9.515625 9.5 -8.453125 C 10.363281 -7.398438 10.742188 -5.953125 10.640625 -4.109375 L 3.65625 -4.109375 C 3.8125 -3.515625 4.09375 -3.054688 4.5 -2.734375 C 4.90625 -2.421875 5.398438 -2.265625 5.984375 -2.265625 C 6.898438 -2.265625 7.695312 -2.601562 8.375 -3.28125 L 10.046875 -1.640625 C 8.972656 -0.472656 7.53125 0.109375 5.71875 0.109375 C 4.101562 0.109375 2.816406 -0.347656 1.859375 -1.265625 C 0.910156 -2.191406 0.4375 -3.414062 0.4375 -4.9375 C 0.4375 -6.476562 0.910156 -7.710938 1.859375 -8.640625 C 2.816406 -9.578125 4.070312 -10.046875 5.625 -10.046875 Z M 3.59375 -5.828125 L 7.578125 -5.828125 C 7.578125 -6.429688 7.398438 -6.914062 7.046875 -7.28125 C 6.703125 -7.644531 6.238281 -7.828125 5.65625 -7.828125 C 5.113281 -7.828125 4.660156 -7.644531 4.296875 -7.28125 C 3.929688 -6.925781 3.695312 -6.441406 3.59375 -5.828125 Z M 3.59375 -5.828125 "/></g></g></g><g fill="#ffffff" fill-opacity="1"><g transform="translate(116.812599, 50.569605)"><g><path d="M 1.125 -2.5 C 1.40625 -2.789062 1.769531 -2.9375 2.21875 -2.9375 C 2.675781 -2.9375 3.050781 -2.789062 3.34375 -2.5 C 3.632812 -2.21875 3.78125 -1.847656 3.78125 -1.390625 C 3.78125 -0.941406 3.632812 -0.570312 3.34375 -0.28125 C 3.050781 0 2.675781 0.140625 2.21875 0.140625 C 1.769531 0.140625 1.40625 0 1.125 -0.28125 C 0.84375 -0.570312 0.703125 -0.941406 0.703125 -1.390625 C 0.703125 -1.847656 0.84375 -2.21875 1.125 -2.5 Z M 1.125 -2.5 "/></g></g></g></svg>