<svg xmlns="http://www.w3.org/2000/svg" xmlns:xlink="http://www.w3.org/1999/xlink" width="500" zoomAndPan="magnify" viewBox="0 0 375 374.999991" height="500" preserveAspectRatio="xMidYMid meet" version="1.0"><defs><g/><clipPath id="7b7492f7f0"><path d="M 44.335938 27.054688 L 91 27.054688 L 91 43.472656 L 44.335938 43.472656 Z M 44.335938 27.054688 " clip-rule="nonzero"/></clipPath><clipPath id="d150b5c299"><path d="M 59.761719 27.054688 L 85.542969 27.054688 C 87.496094 27.054688 89.296875 28.105469 90.265625 29.800781 C 91.234375 31.496094 91.214844 33.582031 90.21875 35.265625 C 87.207031 40.351562 81.734375 43.472656 75.820312 43.472656 L 50.039062 43.472656 C 48.085938 43.472656 46.28125 42.425781 45.316406 40.726562 C 44.347656 39.03125 44.367188 36.945312 45.359375 35.265625 C 48.375 30.175781 53.847656 27.054688 59.761719 27.054688 Z M 59.761719 27.054688 " clip-rule="nonzero"/></clipPath></defs><rect x="-37.5" width="450" fill="#ffffff" y="-37.499999" height="449.999989" fill-opacity="1"/><rect x="-37.5" width="450" fill="#ffffff" y="-37.499999" height="449.999989" fill-opacity="1"/><g clip-path="url(#7b7492f7f0)"><g clip-path="url(#d150b5c299)"><path fill="#89cff0" d="M 40.5 27.054688 L 95.082031 27.054688 L 95.082031 43.472656 L 40.5 43.472656 Z M 40.5 27.054688 " fill-opacity="1" fill-rule="nonzero"/></g></g><g fill="#89cff0" fill-opacity="1"><g transform="translate(0.0000045, 39.962486)"><g><path d="M 10.609375 -7.34375 C 11.398438 -7.34375 12.03125 -7.085938 12.5 -6.578125 C 12.96875 -6.078125 13.203125 -5.40625 13.203125 -4.5625 L 13.203125 0 L 10.890625 0 L 10.890625 -3.921875 C 10.890625 -4.347656 10.773438 -4.6875 10.546875 -4.9375 C 10.328125 -5.1875 10.023438 -5.3125 9.640625 -5.3125 C 9.210938 -5.300781 8.867188 -5.132812 8.609375 -4.8125 C 8.359375 -4.5 8.234375 -4.09375 8.234375 -3.59375 L 8.234375 0 L 5.90625 0 L 5.90625 -3.921875 C 5.90625 -4.347656 5.796875 -4.6875 5.578125 -4.9375 C 5.359375 -5.1875 5.054688 -5.3125 4.671875 -5.3125 C 4.234375 -5.300781 3.882812 -5.132812 3.625 -4.8125 C 3.363281 -4.488281 3.234375 -4.082031 3.234375 -3.59375 L 3.234375 0 L 0.921875 0 L 0.921875 -7.25 L 3.234375 -7.25 L 3.234375 -6.046875 C 3.734375 -6.898438 4.53125 -7.332031 5.625 -7.34375 C 6.207031 -7.34375 6.710938 -7.195312 7.140625 -6.90625 C 7.566406 -6.625 7.867188 -6.226562 8.046875 -5.71875 C 8.523438 -6.789062 9.378906 -7.332031 10.609375 -7.34375 Z M 10.609375 -7.34375 "/></g></g></g><g fill="#89cff0" fill-opacity="1"><g transform="translate(13.160869, 39.962486)"><g><path d="M 4.171875 -7.34375 C 5.171875 -7.34375 5.945312 -7.113281 6.5 -6.65625 C 7.050781 -6.195312 7.332031 -5.554688 7.34375 -4.734375 L 7.34375 0 L 5.0625 0 L 5.0625 -0.828125 C 4.59375 -0.203125 3.851562 0.109375 2.84375 0.109375 C 2.082031 0.109375 1.476562 -0.0976562 1.03125 -0.515625 C 0.582031 -0.941406 0.359375 -1.488281 0.359375 -2.15625 C 0.359375 -2.851562 0.597656 -3.390625 1.078125 -3.765625 C 1.554688 -4.148438 2.242188 -4.347656 3.140625 -4.359375 L 5.046875 -4.359375 L 5.046875 -4.46875 C 5.046875 -4.820312 4.925781 -5.097656 4.6875 -5.296875 C 4.457031 -5.503906 4.109375 -5.609375 3.640625 -5.609375 C 2.984375 -5.609375 2.265625 -5.40625 1.484375 -5 L 0.8125 -6.53125 C 1.988281 -7.070312 3.109375 -7.34375 4.171875 -7.34375 Z M 3.5625 -1.46875 C 3.925781 -1.46875 4.242188 -1.554688 4.515625 -1.734375 C 4.796875 -1.921875 4.972656 -2.160156 5.046875 -2.453125 L 5.046875 -3.109375 L 3.59375 -3.109375 C 2.894531 -3.109375 2.546875 -2.847656 2.546875 -2.328125 C 2.546875 -2.054688 2.632812 -1.84375 2.8125 -1.6875 C 2.988281 -1.539062 3.238281 -1.46875 3.5625 -1.46875 Z M 3.5625 -1.46875 "/></g></g></g><g fill="#89cff0" fill-opacity="1"><g transform="translate(20.452976, 39.962486)"><g><path d="M 5.671875 -7.34375 C 6.460938 -7.34375 7.097656 -7.085938 7.578125 -6.578125 C 8.066406 -6.078125 8.3125 -5.40625 8.3125 -4.5625 L 8.3125 0 L 6 0 L 6 -3.921875 C 6 -4.347656 5.882812 -4.679688 5.65625 -4.921875 C 5.4375 -5.171875 5.128906 -5.296875 4.734375 -5.296875 C 4.316406 -5.296875 3.972656 -5.160156 3.703125 -4.890625 C 3.441406 -4.617188 3.289062 -4.265625 3.25 -3.828125 L 3.25 0 L 0.921875 0 L 0.921875 -7.25 L 3.25 -7.25 L 3.25 -6.0625 C 3.757812 -6.90625 4.566406 -7.332031 5.671875 -7.34375 Z M 5.671875 -7.34375 "/></g></g></g><g fill="#89cff0" fill-opacity="1"><g transform="translate(28.725451, 39.962486)"><g><path d="M 7.84375 -7.25 L 7.84375 -0.65625 C 7.84375 0.363281 7.484375 1.175781 6.765625 1.78125 C 6.046875 2.394531 5.097656 2.703125 3.921875 2.703125 C 2.722656 2.703125 1.648438 2.382812 0.703125 1.75 L 1.5 0.171875 C 2.195312 0.660156 2.945312 0.90625 3.75 0.90625 C 4.300781 0.90625 4.734375 0.769531 5.046875 0.5 C 5.367188 0.226562 5.53125 -0.132812 5.53125 -0.59375 L 5.53125 -1.359375 C 5.039062 -0.710938 4.347656 -0.390625 3.453125 -0.390625 C 2.523438 -0.390625 1.773438 -0.710938 1.203125 -1.359375 C 0.628906 -2.003906 0.34375 -2.847656 0.34375 -3.890625 C 0.34375 -4.910156 0.625 -5.738281 1.1875 -6.375 C 1.75 -7.007812 2.488281 -7.328125 3.40625 -7.328125 C 4.320312 -7.335938 5.03125 -7.015625 5.53125 -6.359375 L 5.53125 -7.25 Z M 4.03125 -2.0625 C 4.476562 -2.0625 4.835938 -2.222656 5.109375 -2.546875 C 5.390625 -2.878906 5.53125 -3.304688 5.53125 -3.828125 C 5.53125 -4.359375 5.390625 -4.785156 5.109375 -5.109375 C 4.835938 -5.441406 4.476562 -5.609375 4.03125 -5.609375 C 3.570312 -5.609375 3.203125 -5.441406 2.921875 -5.109375 C 2.640625 -4.785156 2.5 -4.359375 2.5 -3.828125 C 2.5 -3.304688 2.640625 -2.878906 2.921875 -2.546875 C 3.203125 -2.222656 3.570312 -2.0625 4.03125 -2.0625 Z M 4.03125 -2.0625 "/></g></g></g><g fill="#89cff0" fill-opacity="1"><g transform="translate(36.648756, 39.962486)"><g><path d="M 4.28125 -7.328125 C 5.46875 -7.328125 6.421875 -6.988281 7.140625 -6.3125 C 7.867188 -5.632812 8.234375 -4.738281 8.234375 -3.625 C 8.234375 -2.519531 7.867188 -1.625 7.140625 -0.9375 C 6.421875 -0.257812 5.46875 0.078125 4.28125 0.078125 C 3.09375 0.078125 2.132812 -0.257812 1.40625 -0.9375 C 0.6875 -1.625 0.328125 -2.519531 0.328125 -3.625 C 0.328125 -4.738281 0.6875 -5.632812 1.40625 -6.3125 C 2.132812 -6.988281 3.09375 -7.328125 4.28125 -7.328125 Z M 4.28125 -5.484375 C 3.800781 -5.484375 3.410156 -5.304688 3.109375 -4.953125 C 2.804688 -4.609375 2.65625 -4.15625 2.65625 -3.59375 C 2.65625 -3.03125 2.804688 -2.578125 3.109375 -2.234375 C 3.410156 -1.890625 3.800781 -1.71875 4.28125 -1.71875 C 4.757812 -1.71875 5.148438 -1.890625 5.453125 -2.234375 C 5.753906 -2.578125 5.90625 -3.03125 5.90625 -3.59375 C 5.90625 -4.15625 5.753906 -4.609375 5.453125 -4.953125 C 5.148438 -5.304688 4.757812 -5.484375 4.28125 -5.484375 Z M 4.28125 -5.484375 "/></g></g></g><g fill="#ffffff" fill-opacity="1"><g transform="translate(46.28049, 40.413777)"><g><path d="M 3.546875 -7.40625 C 4.617188 -7.40625 5.617188 -7.128906 6.546875 -6.578125 L 5.75 -5.0625 C 4.84375 -5.550781 4.078125 -5.796875 3.453125 -5.796875 C 2.972656 -5.796875 2.734375 -5.628906 2.734375 -5.296875 C 2.734375 -5.109375 2.863281 -4.953125 3.125 -4.828125 C 3.382812 -4.710938 3.703125 -4.601562 4.078125 -4.5 C 4.460938 -4.40625 4.84375 -4.28125 5.21875 -4.125 C 5.59375 -3.976562 5.910156 -3.742188 6.171875 -3.421875 C 6.429688 -3.097656 6.5625 -2.703125 6.5625 -2.234375 C 6.5625 -1.503906 6.273438 -0.929688 5.703125 -0.515625 C 5.140625 -0.109375 4.398438 0.09375 3.484375 0.09375 C 2.203125 0.09375 1.113281 -0.25 0.21875 -0.9375 L 0.953125 -2.421875 C 1.816406 -1.816406 2.679688 -1.515625 3.546875 -1.515625 C 4.078125 -1.515625 4.34375 -1.679688 4.34375 -2.015625 C 4.34375 -2.203125 4.210938 -2.359375 3.953125 -2.484375 C 3.703125 -2.609375 3.390625 -2.722656 3.015625 -2.828125 C 2.648438 -2.929688 2.28125 -3.054688 1.90625 -3.203125 C 1.539062 -3.347656 1.226562 -3.578125 0.96875 -3.890625 C 0.707031 -4.210938 0.578125 -4.613281 0.578125 -5.09375 C 0.578125 -5.820312 0.851562 -6.390625 1.40625 -6.796875 C 1.957031 -7.203125 2.671875 -7.40625 3.546875 -7.40625 Z M 3.546875 -7.40625 "/></g></g></g><g fill="#ffffff" fill-opacity="1"><g transform="translate(52.448151, 40.413777)"><g><path d="M 5.1875 -2.015625 L 5.640625 -0.390625 C 5.078125 -0.0546875 4.425781 0.109375 3.6875 0.109375 C 2.96875 0.109375 2.382812 -0.0859375 1.9375 -0.484375 C 1.488281 -0.890625 1.265625 -1.460938 1.265625 -2.203125 L 1.265625 -5.421875 L 0.25 -5.421875 L 0.25 -6.953125 L 1.265625 -6.953125 L 1.265625 -8.984375 L 3.59375 -8.984375 L 3.59375 -6.96875 L 5.5 -6.96875 L 5.5 -5.421875 L 3.59375 -5.421875 L 3.59375 -2.578125 C 3.59375 -2.296875 3.648438 -2.085938 3.765625 -1.953125 C 3.878906 -1.828125 4.050781 -1.765625 4.28125 -1.765625 C 4.488281 -1.765625 4.789062 -1.847656 5.1875 -2.015625 Z M 5.1875 -2.015625 "/></g></g></g><g fill="#ffffff" fill-opacity="1"><g transform="translate(57.560802, 40.413777)"><g><path d="M 4.3125 -7.375 C 5.507812 -7.375 6.472656 -7.03125 7.203125 -6.34375 C 7.929688 -5.664062 8.296875 -4.765625 8.296875 -3.640625 C 8.296875 -2.523438 7.929688 -1.625 7.203125 -0.9375 C 6.472656 -0.257812 5.507812 0.078125 4.3125 0.078125 C 3.113281 0.078125 2.148438 -0.257812 1.421875 -0.9375 C 0.691406 -1.625 0.328125 -2.523438 0.328125 -3.640625 C 0.328125 -4.765625 0.691406 -5.664062 1.421875 -6.34375 C 2.148438 -7.03125 3.113281 -7.375 4.3125 -7.375 Z M 4.3125 -5.515625 C 3.820312 -5.515625 3.425781 -5.335938 3.125 -4.984375 C 2.820312 -4.640625 2.671875 -4.1875 2.671875 -3.625 C 2.671875 -3.0625 2.820312 -2.601562 3.125 -2.25 C 3.425781 -1.90625 3.820312 -1.734375 4.3125 -1.734375 C 4.789062 -1.734375 5.179688 -1.90625 5.484375 -2.25 C 5.785156 -2.601562 5.9375 -3.0625 5.9375 -3.625 C 5.9375 -4.1875 5.785156 -4.640625 5.484375 -4.984375 C 5.179688 -5.335938 4.789062 -5.515625 4.3125 -5.515625 Z M 4.3125 -5.515625 "/></g></g></g><g fill="#ffffff" fill-opacity="1"><g transform="translate(65.405653, 40.413777)"><g><path d="M 3.28125 -7.296875 L 3.28125 -6.0625 C 3.789062 -6.9375 4.578125 -7.382812 5.640625 -7.40625 L 5.640625 -5.296875 C 4.972656 -5.359375 4.425781 -5.242188 4 -4.953125 C 3.582031 -4.671875 3.34375 -4.269531 3.28125 -3.75 L 3.28125 0 L 0.9375 0 L 0.9375 -7.296875 Z M 3.28125 -7.296875 "/></g></g></g><g fill="#ffffff" fill-opacity="1"><g transform="translate(70.410099, 40.413777)"><g><path d="M 4.125 -7.375 C 5.382812 -7.375 6.332031 -6.984375 6.96875 -6.203125 C 7.601562 -5.429688 7.882812 -4.367188 7.8125 -3.015625 L 2.671875 -3.015625 C 2.796875 -2.585938 3.003906 -2.253906 3.296875 -2.015625 C 3.597656 -1.785156 3.960938 -1.671875 4.390625 -1.671875 C 5.066406 -1.671875 5.648438 -1.914062 6.140625 -2.40625 L 7.375 -1.203125 C 6.59375 -0.347656 5.53125 0.078125 4.1875 0.078125 C 3.007812 0.078125 2.070312 -0.257812 1.375 -0.9375 C 0.675781 -1.613281 0.328125 -2.507812 0.328125 -3.625 C 0.328125 -4.75 0.675781 -5.65625 1.375 -6.34375 C 2.070312 -7.03125 2.988281 -7.375 4.125 -7.375 Z M 2.640625 -4.28125 L 5.5625 -4.28125 C 5.5625 -4.71875 5.429688 -5.070312 5.171875 -5.34375 C 4.921875 -5.613281 4.582031 -5.75 4.15625 -5.75 C 3.757812 -5.75 3.425781 -5.613281 3.15625 -5.34375 C 2.882812 -5.082031 2.710938 -4.726562 2.640625 -4.28125 Z M 2.640625 -4.28125 "/></g></g></g><g fill="#ffffff" fill-opacity="1"><g transform="translate(77.78155, 40.413777)"><g><path d="M 0.828125 -1.84375 C 1.035156 -2.050781 1.304688 -2.15625 1.640625 -2.15625 C 1.972656 -2.15625 2.242188 -2.050781 2.453125 -1.84375 C 2.671875 -1.632812 2.78125 -1.363281 2.78125 -1.03125 C 2.78125 -0.695312 2.671875 -0.421875 2.453125 -0.203125 C 2.242188 0.00390625 1.972656 0.109375 1.640625 0.109375 C 1.304688 0.109375 1.035156 0.00390625 0.828125 -0.203125 C 0.617188 -0.421875 0.515625 -0.695312 0.515625 -1.03125 C 0.515625 -1.363281 0.617188 -1.632812 0.828125 -1.84375 Z M 0.828125 -1.84375 "/></g></g></g></svg>