<svg xmlns="http://www.w3.org/2000/svg" xmlns:xlink="http://www.w3.org/1999/xlink" width="500" zoomAndPan="magnify" viewBox="0 0 375 374.999991" height="500" preserveAspectRatio="xMidYMid meet" version="1.0"><defs><g/><clipPath id="44206be7fa"><path d="M 126 16.613281 L 263 16.613281 L 263 60.382812 L 126 60.382812 Z M 126 16.613281 " clip-rule="nonzero"/></clipPath><clipPath id="a7c4c407a6"><path d="M 158.011719 16.613281 L 256.617188 16.613281 C 258.769531 16.613281 260.753906 17.765625 261.816406 19.632812 C 262.882812 21.5 262.863281 23.796875 261.769531 25.644531 L 246.546875 51.347656 C 243.230469 56.949219 237.207031 60.382812 230.695312 60.382812 L 132.089844 60.382812 C 129.9375 60.382812 127.953125 59.230469 126.890625 57.363281 C 125.824219 55.496094 125.84375 53.199219 126.9375 51.347656 L 142.160156 25.644531 C 145.476562 20.046875 151.5 16.613281 158.011719 16.613281 Z M 158.011719 16.613281 " clip-rule="nonzero"/></clipPath></defs><rect x="-37.5" width="450" fill="#ffffff" y="-37.499999" height="449.999989" fill-opacity="1"/><rect x="-37.5" width="450" fill="#ffffff" y="-37.499999" height="449.999989" fill-opacity="1"/><g clip-path="url(#44206be7fa)"><g clip-path="url(#a7c4c407a6)"><path fill="#89cff0" d="M 121.589844 16.613281 L 267.117188 16.613281 L 267.117188 60.382812 L 121.589844 60.382812 Z M 121.589844 16.613281 " fill-opacity="1" fill-rule="nonzero"/></g></g><g fill="#89cff0" fill-opacity="1"><g transform="translate(11.399538, 50.624997)"><g><path d="M 27.5 -19.0625 C 29.570312 -19.0625 31.21875 -18.40625 32.4375 -17.09375 C 33.65625 -15.78125 34.265625 -14.035156 34.265625 -11.859375 L 34.265625 0 L 28.265625 0 L 28.265625 -10.171875 C 28.265625 -11.296875 27.972656 -12.175781 27.390625 -12.8125 C 26.816406 -13.445312 26.03125 -13.765625 25.03125 -13.765625 C 23.914062 -13.742188 23.023438 -13.320312 22.359375 -12.5 C 21.703125 -11.675781 21.375 -10.613281 21.375 -9.3125 L 21.375 0 L 15.34375 0 L 15.34375 -10.171875 C 15.34375 -11.296875 15.054688 -12.175781 14.484375 -12.8125 C 13.910156 -13.445312 13.125 -13.765625 12.125 -13.765625 C 10.988281 -13.742188 10.082031 -13.3125 9.40625 -12.46875 C 8.738281 -11.632812 8.40625 -10.582031 8.40625 -9.3125 L 8.40625 0 L 2.40625 0 L 2.40625 -18.796875 L 8.40625 -18.796875 L 8.40625 -15.6875 C 9.675781 -17.894531 11.742188 -19.019531 14.609375 -19.0625 C 16.117188 -19.0625 17.425781 -18.679688 18.53125 -17.921875 C 19.632812 -17.171875 20.414062 -16.132812 20.875 -14.8125 C 22.113281 -17.601562 24.320312 -19.019531 27.5 -19.0625 Z M 27.5 -19.0625 "/></g></g></g><g fill="#89cff0" fill-opacity="1"><g transform="translate(45.553251, 50.624997)"><g><path d="M 10.84375 -19.0625 C 13.414062 -19.0625 15.414062 -18.460938 16.84375 -17.265625 C 18.28125 -16.078125 19.007812 -14.410156 19.03125 -12.265625 L 19.03125 0 L 13.140625 0 L 13.140625 -2.15625 C 11.910156 -0.53125 9.992188 0.28125 7.390625 0.28125 C 5.410156 0.28125 3.835938 -0.265625 2.671875 -1.359375 C 1.515625 -2.453125 0.9375 -3.867188 0.9375 -5.609375 C 0.9375 -7.398438 1.554688 -8.789062 2.796875 -9.78125 C 4.046875 -10.769531 5.832031 -11.273438 8.15625 -11.296875 L 13.109375 -11.296875 L 13.109375 -11.578125 C 13.109375 -12.503906 12.800781 -13.226562 12.1875 -13.75 C 11.570312 -14.269531 10.660156 -14.53125 9.453125 -14.53125 C 7.753906 -14.53125 5.878906 -14.007812 3.828125 -12.96875 L 2.125 -16.9375 C 5.164062 -18.351562 8.070312 -19.0625 10.84375 -19.0625 Z M 9.234375 -3.796875 C 10.191406 -3.796875 11.03125 -4.035156 11.75 -4.515625 C 12.46875 -4.992188 12.921875 -5.613281 13.109375 -6.375 L 13.109375 -8.046875 L 9.3125 -8.046875 C 7.5 -8.046875 6.59375 -7.375 6.59375 -6.03125 C 6.59375 -5.332031 6.820312 -4.785156 7.28125 -4.390625 C 7.75 -3.992188 8.398438 -3.796875 9.234375 -3.796875 Z M 9.234375 -3.796875 "/></g></g></g><g fill="#89cff0" fill-opacity="1"><g transform="translate(64.476837, 50.624997)"><g><path d="M 14.703125 -19.0625 C 16.773438 -19.0625 18.4375 -18.40625 19.6875 -17.09375 C 20.945312 -15.78125 21.578125 -14.035156 21.578125 -11.859375 L 21.578125 0 L 15.578125 0 L 15.578125 -10.171875 C 15.578125 -11.265625 15.28125 -12.128906 14.6875 -12.765625 C 14.09375 -13.410156 13.285156 -13.734375 12.265625 -13.734375 C 11.203125 -13.734375 10.328125 -13.382812 9.640625 -12.6875 C 8.953125 -11.988281 8.550781 -11.070312 8.4375 -9.9375 L 8.4375 0 L 2.40625 0 L 2.40625 -18.796875 L 8.4375 -18.796875 L 8.4375 -15.71875 C 9.757812 -17.90625 11.847656 -19.019531 14.703125 -19.0625 Z M 14.703125 -19.0625 "/></g></g></g><g fill="#89cff0" fill-opacity="1"><g transform="translate(85.944578, 50.624997)"><g><path d="M 20.359375 -18.796875 L 20.359375 -1.703125 C 20.359375 0.941406 19.421875 3.050781 17.546875 4.625 C 15.679688 6.207031 13.222656 7 10.171875 7 C 7.054688 7 4.269531 6.175781 1.8125 4.53125 L 3.90625 0.453125 C 5.71875 1.703125 7.65625 2.328125 9.71875 2.328125 C 11.164062 2.328125 12.300781 1.976562 13.125 1.28125 C 13.945312 0.59375 14.359375 -0.34375 14.359375 -1.53125 L 14.359375 -3.515625 C 13.078125 -1.847656 11.273438 -1.015625 8.953125 -1.015625 C 6.566406 -1.015625 4.625 -1.847656 3.125 -3.515625 C 1.625 -5.191406 0.875 -7.390625 0.875 -10.109375 C 0.875 -12.753906 1.601562 -14.894531 3.0625 -16.53125 C 4.53125 -18.175781 6.445312 -19 8.8125 -19 C 11.207031 -19.019531 13.054688 -18.179688 14.359375 -16.484375 L 14.359375 -18.796875 Z M 10.453125 -5.375 C 11.617188 -5.375 12.5625 -5.796875 13.28125 -6.640625 C 14 -7.484375 14.359375 -8.582031 14.359375 -9.9375 C 14.359375 -11.300781 14 -12.40625 13.28125 -13.25 C 12.5625 -14.101562 11.617188 -14.53125 10.453125 -14.53125 C 9.273438 -14.53125 8.316406 -14.101562 7.578125 -13.25 C 6.847656 -12.40625 6.484375 -11.300781 6.484375 -9.9375 C 6.484375 -8.582031 6.847656 -7.484375 7.578125 -6.640625 C 8.316406 -5.796875 9.273438 -5.375 10.453125 -5.375 Z M 10.453125 -5.375 "/></g></g></g><g fill="#89cff0" fill-opacity="1"><g transform="translate(106.506188, 50.624997)"><g><path d="M 11.125 -19 C 14.1875 -19 16.660156 -18.117188 18.546875 -16.359375 C 20.429688 -14.609375 21.375 -12.289062 21.375 -9.40625 C 21.375 -6.53125 20.429688 -4.207031 18.546875 -2.4375 C 16.660156 -0.675781 14.1875 0.203125 11.125 0.203125 C 8.03125 0.203125 5.539062 -0.675781 3.65625 -2.4375 C 1.78125 -4.207031 0.84375 -6.53125 0.84375 -9.40625 C 0.84375 -12.289062 1.78125 -14.609375 3.65625 -16.359375 C 5.539062 -18.117188 8.03125 -19 11.125 -19 Z M 11.125 -14.21875 C 9.863281 -14.21875 8.84375 -13.765625 8.0625 -12.859375 C 7.289062 -11.953125 6.90625 -10.78125 6.90625 -9.34375 C 6.90625 -7.875 7.289062 -6.691406 8.0625 -5.796875 C 8.84375 -4.910156 9.863281 -4.46875 11.125 -4.46875 C 12.351562 -4.46875 13.351562 -4.910156 14.125 -5.796875 C 14.90625 -6.691406 15.296875 -7.875 15.296875 -9.34375 C 15.296875 -10.78125 14.90625 -11.953125 14.125 -12.859375 C 13.351562 -13.765625 12.351562 -14.21875 11.125 -14.21875 Z M 11.125 -14.21875 "/></g></g></g><g fill="#ffffff" fill-opacity="1"><g transform="translate(143.021407, 51.015278)"><g><path d="M 9.65625 -20.15625 C 12.582031 -20.15625 15.3125 -19.40625 17.84375 -17.90625 L 15.671875 -13.78125 C 13.210938 -15.113281 11.125 -15.78125 9.40625 -15.78125 C 8.101562 -15.78125 7.453125 -15.320312 7.453125 -14.40625 C 7.453125 -13.914062 7.804688 -13.503906 8.515625 -13.171875 C 9.222656 -12.835938 10.09375 -12.535156 11.125 -12.265625 C 12.15625 -12.003906 13.179688 -11.671875 14.203125 -11.265625 C 15.222656 -10.859375 16.085938 -10.210938 16.796875 -9.328125 C 17.515625 -8.441406 17.875 -7.359375 17.875 -6.078125 C 17.875 -4.085938 17.097656 -2.53125 15.546875 -1.40625 C 14.003906 -0.289062 11.992188 0.265625 9.515625 0.265625 C 5.992188 0.265625 3.019531 -0.671875 0.59375 -2.546875 L 2.609375 -6.59375 C 4.953125 -4.945312 7.300781 -4.125 9.65625 -4.125 C 11.101562 -4.125 11.828125 -4.578125 11.828125 -5.484375 C 11.828125 -6.003906 11.476562 -6.4375 10.78125 -6.78125 C 10.082031 -7.125 9.226562 -7.429688 8.21875 -7.703125 C 7.207031 -7.972656 6.195312 -8.3125 5.1875 -8.71875 C 4.1875 -9.125 3.332031 -9.753906 2.625 -10.609375 C 1.925781 -11.472656 1.578125 -12.554688 1.578125 -13.859375 C 1.578125 -15.847656 2.328125 -17.394531 3.828125 -18.5 C 5.328125 -19.601562 7.269531 -20.15625 9.65625 -20.15625 Z M 9.65625 -20.15625 "/></g></g></g><g fill="#ffffff" fill-opacity="1"><g transform="translate(159.830308, 51.015278)"><g><path d="M 14.109375 -5.484375 L 15.375 -1.0625 C 13.820312 -0.15625 12.050781 0.296875 10.0625 0.296875 C 8.09375 0.296875 6.5 -0.25 5.28125 -1.34375 C 4.070312 -2.4375 3.46875 -3.992188 3.46875 -6.015625 L 3.46875 -14.78125 L 0.703125 -14.78125 L 0.703125 -18.953125 L 3.46875 -18.953125 L 3.46875 -24.46875 L 9.796875 -24.46875 L 9.796875 -18.984375 L 15 -18.984375 L 15 -14.78125 L 9.796875 -14.78125 L 9.796875 -7 C 9.796875 -6.238281 9.945312 -5.679688 10.25 -5.328125 C 10.5625 -4.972656 11.023438 -4.804688 11.640625 -4.828125 C 12.234375 -4.828125 13.054688 -5.046875 14.109375 -5.484375 Z M 14.109375 -5.484375 "/></g></g></g><g fill="#ffffff" fill-opacity="1"><g transform="translate(173.763963, 51.015278)"><g><path d="M 11.765625 -20.09375 C 15.003906 -20.09375 17.617188 -19.160156 19.609375 -17.296875 C 21.597656 -15.441406 22.59375 -12.988281 22.59375 -9.9375 C 22.59375 -6.894531 21.597656 -4.441406 19.609375 -2.578125 C 17.617188 -0.710938 15.003906 0.21875 11.765625 0.21875 C 8.492188 0.21875 5.863281 -0.710938 3.875 -2.578125 C 1.882812 -4.441406 0.890625 -6.894531 0.890625 -9.9375 C 0.890625 -12.988281 1.882812 -15.441406 3.875 -17.296875 C 5.863281 -19.160156 8.492188 -20.09375 11.765625 -20.09375 Z M 11.765625 -15.03125 C 10.429688 -15.03125 9.351562 -14.550781 8.53125 -13.59375 C 7.707031 -12.632812 7.296875 -11.394531 7.296875 -9.875 C 7.296875 -8.332031 7.707031 -7.085938 8.53125 -6.140625 C 9.351562 -5.191406 10.429688 -4.71875 11.765625 -4.71875 C 13.066406 -4.71875 14.128906 -5.191406 14.953125 -6.140625 C 15.773438 -7.085938 16.1875 -8.332031 16.1875 -9.875 C 16.1875 -11.394531 15.773438 -12.632812 14.953125 -13.59375 C 14.128906 -14.550781 13.066406 -15.03125 11.765625 -15.03125 Z M 11.765625 -15.03125 "/></g></g></g><g fill="#ffffff" fill-opacity="1"><g transform="translate(195.143758, 51.015278)"><g><path d="M 8.921875 -19.859375 L 8.921875 -16.515625 C 10.316406 -18.898438 12.46875 -20.113281 15.375 -20.15625 L 15.375 -14.40625 C 13.550781 -14.582031 12.0625 -14.28125 10.90625 -13.5 C 9.75 -12.726562 9.085938 -11.628906 8.921875 -10.203125 L 8.921875 0 L 2.546875 0 L 2.546875 -19.859375 Z M 8.921875 -19.859375 "/></g></g></g><g fill="#ffffff" fill-opacity="1"><g transform="translate(208.782517, 51.015278)"><g><path d="M 11.234375 -20.09375 C 14.679688 -20.09375 17.269531 -19.035156 19 -16.921875 C 20.726562 -14.804688 21.484375 -11.90625 21.265625 -8.21875 L 7.296875 -8.21875 C 7.617188 -7.039062 8.179688 -6.128906 8.984375 -5.484375 C 9.796875 -4.847656 10.796875 -4.53125 11.984375 -4.53125 C 13.796875 -4.53125 15.378906 -5.207031 16.734375 -6.5625 L 20.09375 -3.28125 C 17.945312 -0.945312 15.054688 0.21875 11.421875 0.21875 C 8.203125 0.21875 5.640625 -0.703125 3.734375 -2.546875 C 1.835938 -4.390625 0.890625 -6.832031 0.890625 -9.875 C 0.890625 -12.945312 1.835938 -15.414062 3.734375 -17.28125 C 5.640625 -19.15625 8.140625 -20.09375 11.234375 -20.09375 Z M 7.1875 -11.640625 L 15.15625 -11.640625 C 15.15625 -12.847656 14.800781 -13.820312 14.09375 -14.5625 C 13.394531 -15.300781 12.46875 -15.671875 11.3125 -15.671875 C 10.226562 -15.671875 9.316406 -15.304688 8.578125 -14.578125 C 7.847656 -13.847656 7.382812 -12.867188 7.1875 -11.640625 Z M 7.1875 -11.640625 "/></g></g></g><g fill="#ffffff" fill-opacity="1"><g transform="translate(228.872145, 51.015278)"><g><path d="M 2.25 -5.015625 C 2.8125 -5.578125 3.546875 -5.859375 4.453125 -5.859375 C 5.367188 -5.859375 6.113281 -5.578125 6.6875 -5.015625 C 7.269531 -4.453125 7.5625 -3.710938 7.5625 -2.796875 C 7.5625 -1.890625 7.269531 -1.144531 6.6875 -0.5625 C 6.113281 0.0078125 5.367188 0.296875 4.453125 0.296875 C 3.546875 0.296875 2.8125 0.0078125 2.25 -0.5625 C 1.6875 -1.144531 1.40625 -1.890625 1.40625 -2.796875 C 1.40625 -3.710938 1.6875 -4.453125 2.25 -5.015625 Z M 2.25 -5.015625 "/></g></g></g></svg>