<svg xmlns="http://www.w3.org/2000/svg" xmlns:xlink="http://www.w3.org/1999/xlink" width="500" zoomAndPan="magnify" viewBox="0 0 375 374.999991" height="500" preserveAspectRatio="xMidYMid meet" version="1.0"><defs><g/><clipPath id="1aecd9fd53"><path d="M 166.070312 28.039062 L 360 28.039062 L 360 88.769531 L 166.070312 88.769531 Z M 166.070312 28.039062 " clip-rule="nonzero"/></clipPath><clipPath id="e8af822d29"><path d="M 208.589844 28.039062 L 353.535156 28.039062 C 355.683594 28.039062 357.671875 29.191406 358.734375 31.0625 C 359.800781 32.929688 359.78125 35.222656 358.683594 37.074219 L 333.421875 79.734375 C 330.105469 85.335938 324.082031 88.769531 317.570312 88.769531 L 172.625 88.769531 C 170.476562 88.769531 168.492188 87.617188 167.425781 85.75 C 166.363281 83.878906 166.382812 81.585938 167.476562 79.734375 L 192.738281 37.074219 C 196.054688 31.472656 202.082031 28.039062 208.589844 28.039062 Z M 208.589844 28.039062 " clip-rule="nonzero"/></clipPath></defs><rect x="-37.5" width="450" fill="#ffffff" y="-37.499999" height="449.999989" fill-opacity="1"/><rect x="-37.5" width="450" fill="#46b4e7" y="-37.499999" height="449.999989" fill-opacity="1"/><g clip-path="url(#1aecd9fd53)"><g clip-path="url(#e8af822d29)"><path fill="#89cff0" d="M 162.125 28.039062 L 364.035156 28.039062 L 364.035156 88.769531 L 162.125 88.769531 Z M 162.125 28.039062 " fill-opacity="1" fill-rule="nonzero"/></g></g><g fill="#ffffff" fill-opacity="1"><g transform="translate(0.0000045, 78.162578)"><g><path d="M 40.578125 -28.125 C 43.617188 -28.125 46.039062 -27.15625 47.84375 -25.21875 C 49.644531 -23.28125 50.546875 -20.703125 50.546875 -17.484375 L 50.546875 0 L 41.703125 0 L 41.703125 -15.015625 C 41.703125 -16.660156 41.269531 -17.953125 40.40625 -18.890625 C 39.550781 -19.835938 38.390625 -20.3125 36.921875 -20.3125 C 35.273438 -20.28125 33.960938 -19.65625 32.984375 -18.4375 C 32.003906 -17.21875 31.515625 -15.648438 31.515625 -13.734375 L 31.515625 0 L 22.625 0 L 22.625 -15.015625 C 22.625 -16.660156 22.203125 -17.953125 21.359375 -18.890625 C 20.523438 -19.835938 19.367188 -20.3125 17.890625 -20.3125 C 16.210938 -20.28125 14.875 -19.644531 13.875 -18.40625 C 12.882812 -17.175781 12.390625 -15.617188 12.390625 -13.734375 L 12.390625 0 L 3.546875 0 L 3.546875 -27.71875 L 12.390625 -27.71875 L 12.390625 -23.140625 C 14.273438 -26.398438 17.328125 -28.0625 21.546875 -28.125 C 23.773438 -28.125 25.703125 -27.566406 27.328125 -26.453125 C 28.953125 -25.335938 30.109375 -23.804688 30.796875 -21.859375 C 32.617188 -25.972656 35.878906 -28.0625 40.578125 -28.125 Z M 40.578125 -28.125 "/></g></g></g><g fill="#ffffff" fill-opacity="1"><g transform="translate(50.392869, 78.162578)"><g><path d="M 16 -28.125 C 19.800781 -28.125 22.753906 -27.238281 24.859375 -25.46875 C 26.972656 -23.707031 28.046875 -21.25 28.078125 -18.09375 L 28.078125 0 L 19.390625 0 L 19.390625 -3.1875 C 17.566406 -0.789062 14.738281 0.40625 10.90625 0.40625 C 7.988281 0.40625 5.671875 -0.394531 3.953125 -2 C 2.242188 -3.613281 1.390625 -5.707031 1.390625 -8.28125 C 1.390625 -10.914062 2.304688 -12.960938 4.140625 -14.421875 C 5.972656 -15.878906 8.601562 -16.625 12.03125 -16.65625 L 19.328125 -16.65625 L 19.328125 -17.078125 C 19.328125 -18.441406 18.875 -19.507812 17.96875 -20.28125 C 17.0625 -21.050781 15.71875 -21.4375 13.9375 -21.4375 C 11.4375 -21.4375 8.675781 -20.664062 5.65625 -19.125 L 3.140625 -24.984375 C 7.628906 -27.078125 11.914062 -28.125 16 -28.125 Z M 13.625 -5.609375 C 15.03125 -5.609375 16.265625 -5.957031 17.328125 -6.65625 C 18.390625 -7.363281 19.054688 -8.28125 19.328125 -9.40625 L 19.328125 -11.875 L 13.734375 -11.875 C 11.054688 -11.875 9.71875 -10.878906 9.71875 -8.890625 C 9.71875 -7.867188 10.0625 -7.066406 10.75 -6.484375 C 11.4375 -5.898438 12.394531 -5.609375 13.625 -5.609375 Z M 13.625 -5.609375 "/></g></g></g><g fill="#ffffff" fill-opacity="1"><g transform="translate(78.31438, 78.162578)"><g><path d="M 21.703125 -28.125 C 24.753906 -28.125 27.203125 -27.15625 29.046875 -25.21875 C 30.898438 -23.28125 31.828125 -20.703125 31.828125 -17.484375 L 31.828125 0 L 22.984375 0 L 22.984375 -15.015625 C 22.984375 -16.628906 22.546875 -17.90625 21.671875 -18.84375 C 20.796875 -19.789062 19.601562 -20.265625 18.09375 -20.265625 C 16.519531 -20.265625 15.226562 -19.75 14.21875 -18.71875 C 13.207031 -17.6875 12.613281 -16.332031 12.4375 -14.65625 L 12.4375 0 L 3.546875 0 L 3.546875 -27.71875 L 12.4375 -27.71875 L 12.4375 -23.1875 C 14.394531 -26.414062 17.484375 -28.0625 21.703125 -28.125 Z M 21.703125 -28.125 "/></g></g></g><g fill="#ffffff" fill-opacity="1"><g transform="translate(109.989678, 78.162578)"><g><path d="M 30.03125 -27.71875 L 30.03125 -2.515625 C 30.03125 1.390625 28.648438 4.503906 25.890625 6.828125 C 23.128906 9.160156 19.503906 10.328125 15.015625 10.328125 C 10.421875 10.328125 6.304688 9.113281 2.671875 6.6875 L 5.765625 0.671875 C 8.429688 2.515625 11.289062 3.4375 14.34375 3.4375 C 16.46875 3.4375 18.140625 2.921875 19.359375 1.890625 C 20.578125 0.867188 21.1875 -0.515625 21.1875 -2.265625 L 21.1875 -5.1875 C 19.300781 -2.71875 16.644531 -1.484375 13.21875 -1.484375 C 9.6875 -1.484375 6.8125 -2.71875 4.59375 -5.1875 C 2.382812 -7.65625 1.28125 -10.894531 1.28125 -14.90625 C 1.28125 -18.820312 2.359375 -21.988281 4.515625 -24.40625 C 6.679688 -26.820312 9.515625 -28.03125 13.015625 -28.03125 C 16.546875 -28.0625 19.269531 -26.828125 21.1875 -24.328125 L 21.1875 -27.71875 Z M 15.421875 -7.921875 C 17.140625 -7.921875 18.53125 -8.546875 19.59375 -9.796875 C 20.65625 -11.046875 21.1875 -12.664062 21.1875 -14.65625 C 21.1875 -16.675781 20.65625 -18.3125 19.59375 -19.5625 C 18.53125 -20.8125 17.140625 -21.4375 15.421875 -21.4375 C 13.671875 -21.4375 12.253906 -20.8125 11.171875 -19.5625 C 10.097656 -18.3125 9.5625 -16.675781 9.5625 -14.65625 C 9.5625 -12.664062 10.097656 -11.046875 11.171875 -9.796875 C 12.253906 -8.546875 13.671875 -7.921875 15.421875 -7.921875 Z M 15.421875 -7.921875 "/></g></g></g><g fill="#ffffff" fill-opacity="1"><g transform="translate(140.32801, 78.162578)"><g><path d="M 16.40625 -28.03125 C 20.925781 -28.03125 24.570312 -26.734375 27.34375 -24.140625 C 30.125 -21.554688 31.515625 -18.132812 31.515625 -13.875 C 31.515625 -9.625 30.125 -6.195312 27.34375 -3.59375 C 24.570312 -0.988281 20.925781 0.3125 16.40625 0.3125 C 11.84375 0.3125 8.171875 -0.988281 5.390625 -3.59375 C 2.617188 -6.195312 1.234375 -9.625 1.234375 -13.875 C 1.234375 -18.132812 2.617188 -21.554688 5.390625 -24.140625 C 8.171875 -26.734375 11.84375 -28.03125 16.40625 -28.03125 Z M 16.40625 -20.984375 C 14.550781 -20.984375 13.050781 -20.3125 11.90625 -18.96875 C 10.757812 -17.632812 10.1875 -15.90625 10.1875 -13.78125 C 10.1875 -11.625 10.757812 -9.882812 11.90625 -8.5625 C 13.050781 -7.238281 14.550781 -6.578125 16.40625 -6.578125 C 18.21875 -6.578125 19.695312 -7.238281 20.84375 -8.5625 C 22 -9.882812 22.578125 -11.625 22.578125 -13.78125 C 22.578125 -15.90625 22 -17.632812 20.84375 -18.96875 C 19.695312 -20.3125 18.21875 -20.984375 16.40625 -20.984375 Z M 16.40625 -20.984375 "/></g></g></g><g fill="#004aad" fill-opacity="1"><g transform="translate(187.499992, 78.283617)"><g><path d="M 17.796875 -37.15625 C 23.285156 -37.15625 28.113281 -35.789062 32.28125 -33.0625 L 28.765625 -25.765625 C 26.835938 -26.890625 24.769531 -27.804688 22.5625 -28.515625 C 20.363281 -29.234375 18.507812 -29.59375 17 -29.59375 C 14.3125 -29.59375 12.96875 -28.703125 12.96875 -26.921875 C 12.96875 -25.765625 13.628906 -24.835938 14.953125 -24.140625 C 16.285156 -23.441406 17.90625 -22.835938 19.8125 -22.328125 C 21.71875 -21.828125 23.625 -21.21875 25.53125 -20.5 C 27.4375 -19.78125 29.050781 -18.613281 30.375 -17 C 31.707031 -15.394531 32.375 -13.367188 32.375 -10.921875 C 32.375 -7.378906 30.992188 -4.617188 28.234375 -2.640625 C 25.472656 -0.671875 21.957031 0.3125 17.6875 0.3125 C 14.644531 0.3125 11.632812 -0.207031 8.65625 -1.25 C 5.6875 -2.300781 3.097656 -3.738281 0.890625 -5.5625 L 4.515625 -12.75 C 6.367188 -11.144531 8.554688 -9.828125 11.078125 -8.796875 C 13.597656 -7.765625 15.835938 -7.25 17.796875 -7.25 C 19.296875 -7.25 20.460938 -7.519531 21.296875 -8.0625 C 22.140625 -8.601562 22.5625 -9.394531 22.5625 -10.4375 C 22.5625 -11.457031 22.082031 -12.304688 21.125 -12.984375 C 20.164062 -13.671875 18.96875 -14.179688 17.53125 -14.515625 C 16.09375 -14.847656 14.535156 -15.289062 12.859375 -15.84375 C 11.179688 -16.40625 9.625 -17.019531 8.1875 -17.6875 C 6.75 -18.351562 5.550781 -19.410156 4.59375 -20.859375 C 3.632812 -22.316406 3.15625 -24.054688 3.15625 -26.078125 C 3.15625 -29.441406 4.488281 -32.128906 7.15625 -34.140625 C 9.832031 -36.148438 13.378906 -37.15625 17.796875 -37.15625 Z M 17.796875 -37.15625 "/></g></g></g><g fill="#004aad" fill-opacity="1"><g transform="translate(218.295054, 78.283617)"><g><path d="M 20.09375 -7.8125 L 21.890625 -1.515625 C 19.679688 -0.222656 17.160156 0.421875 14.328125 0.421875 C 11.523438 0.421875 9.257812 -0.351562 7.53125 -1.90625 C 5.800781 -3.46875 4.9375 -5.6875 4.9375 -8.5625 L 4.9375 -21.046875 L 1 -21.046875 L 1 -26.984375 L 4.9375 -26.984375 L 4.9375 -34.84375 L 13.953125 -34.84375 L 13.953125 -27.03125 L 21.359375 -27.03125 L 21.359375 -21.046875 L 13.953125 -21.046875 L 13.953125 -9.96875 C 13.953125 -8.882812 14.171875 -8.085938 14.609375 -7.578125 C 15.046875 -7.078125 15.703125 -6.84375 16.578125 -6.875 C 17.421875 -6.875 18.59375 -7.1875 20.09375 -7.8125 Z M 20.09375 -7.8125 "/></g></g></g><g fill="#004aad" fill-opacity="1"><g transform="translate(238.125186, 78.283617)"><g><path d="M 16.75 -28.609375 C 21.363281 -28.609375 25.085938 -27.285156 27.921875 -24.640625 C 30.753906 -21.992188 32.171875 -18.5 32.171875 -14.15625 C 32.171875 -9.820312 30.753906 -6.328125 27.921875 -3.671875 C 25.085938 -1.015625 21.363281 0.3125 16.75 0.3125 C 12.09375 0.3125 8.347656 -1.015625 5.515625 -3.671875 C 2.679688 -6.328125 1.265625 -9.820312 1.265625 -14.15625 C 1.265625 -18.5 2.679688 -21.992188 5.515625 -24.640625 C 8.347656 -27.285156 12.09375 -28.609375 16.75 -28.609375 Z M 16.75 -21.40625 C 14.851562 -21.40625 13.316406 -20.722656 12.140625 -19.359375 C 10.972656 -17.992188 10.390625 -16.226562 10.390625 -14.0625 C 10.390625 -11.863281 10.972656 -10.085938 12.140625 -8.734375 C 13.316406 -7.390625 14.851562 -6.71875 16.75 -6.71875 C 18.601562 -6.71875 20.113281 -7.390625 21.28125 -8.734375 C 22.457031 -10.085938 23.046875 -11.863281 23.046875 -14.0625 C 23.046875 -16.226562 22.457031 -17.992188 21.28125 -19.359375 C 20.113281 -20.722656 18.601562 -21.40625 16.75 -21.40625 Z M 16.75 -21.40625 "/></g></g></g><g fill="#004aad" fill-opacity="1"><g transform="translate(268.553013, 78.283617)"><g><path d="M 12.703125 -28.28125 L 12.703125 -23.515625 C 14.691406 -26.910156 17.753906 -28.640625 21.890625 -28.703125 L 21.890625 -20.515625 C 19.296875 -20.765625 17.175781 -20.335938 15.53125 -19.234375 C 13.882812 -18.128906 12.941406 -16.5625 12.703125 -14.53125 L 12.703125 0 L 3.625 0 L 3.625 -28.28125 Z M 12.703125 -28.28125 "/></g></g></g><g fill="#004aad" fill-opacity="1"><g transform="translate(287.963445, 78.283617)"><g><path d="M 16 -28.609375 C 20.90625 -28.609375 24.585938 -27.101562 27.046875 -24.09375 C 29.515625 -21.082031 30.59375 -16.953125 30.28125 -11.703125 L 10.390625 -11.703125 C 10.847656 -10.023438 11.648438 -8.726562 12.796875 -7.8125 C 13.953125 -6.90625 15.375 -6.453125 17.0625 -6.453125 C 19.644531 -6.453125 21.898438 -7.414062 23.828125 -9.34375 L 28.609375 -4.671875 C 25.554688 -1.347656 21.441406 0.3125 16.265625 0.3125 C 11.679688 0.3125 8.035156 -1 5.328125 -3.625 C 2.617188 -6.25 1.265625 -9.726562 1.265625 -14.0625 C 1.265625 -18.4375 2.617188 -21.953125 5.328125 -24.609375 C 8.035156 -27.273438 11.59375 -28.609375 16 -28.609375 Z M 10.234375 -16.578125 L 21.578125 -16.578125 C 21.578125 -18.296875 21.078125 -19.679688 20.078125 -20.734375 C 19.078125 -21.785156 17.753906 -22.3125 16.109375 -22.3125 C 14.566406 -22.3125 13.269531 -21.789062 12.21875 -20.75 C 11.175781 -19.71875 10.515625 -18.328125 10.234375 -16.578125 Z M 10.234375 -16.578125 "/></g></g></g><g fill="#004aad" fill-opacity="1"><g transform="translate(316.55504, 78.283617)"><g><path d="M 3.203125 -7.140625 C 4.003906 -7.941406 5.050781 -8.34375 6.34375 -8.34375 C 7.644531 -8.34375 8.707031 -7.941406 9.53125 -7.140625 C 10.351562 -6.335938 10.765625 -5.285156 10.765625 -3.984375 C 10.765625 -2.691406 10.351562 -1.632812 9.53125 -0.8125 C 8.707031 0.0078125 7.644531 0.421875 6.34375 0.421875 C 5.050781 0.421875 4.003906 0.0078125 3.203125 -0.8125 C 2.398438 -1.632812 2 -2.691406 2 -3.984375 C 2 -5.285156 2.398438 -6.335938 3.203125 -7.140625 Z M 3.203125 -7.140625 "/></g></g></g></svg>